<svg xmlns="http://www.w3.org/2000/svg" width="681.384" height="1018.002" viewBox="0 0 681.384 1018.002">
  <g id="グループ_138" data-name="グループ 138" transform="translate(-9094.488 1478)">
    <path id="パス_161" data-name="パス 161" d="M1096.768,1073.222A174.458,174.458,0,1,1,922.311,898.766a174.457,174.457,0,0,1,174.458,174.456" transform="translate(8452.487 -1813.66)" fill="#fff"/>
    <path id="パス_164" data-name="パス 164" d="M1140.723,1117.179A174.458,174.458,0,1,1,966.266,942.721a174.457,174.457,0,0,1,174.458,174.458M966.266,836.869c-154.81,0-280.31,125.5-280.31,280.31s125.5,280.31,280.31,280.31,280.31-125.5,280.31-280.31-125.5-280.31-280.31-280.31" transform="translate(8408.532 -1857.615)" fill="#1a1311"/>
    <rect id="長方形_247" data-name="長方形 247" width="165.18" height="1018.002" transform="translate(9610.692 -1478)" fill="#1a1311"/>
  </g>
</svg>
