<svg xmlns="http://www.w3.org/2000/svg" width="672.171" height="672.172" viewBox="0 0 672.171 672.172">
  <g id="グループ_139" data-name="グループ 139" transform="translate(-9776.732 1308.986)">
    <path id="パス_165" data-name="パス 165" d="M1198.478,866.835c0-68.64,62.064-124.282,138.623-124.282s138.624,55.643,138.624,124.282" transform="translate(8772.491 -1921.592)" fill="#1a1311"/>
    <path id="パス_166" data-name="パス 166" d="M1524.421,885.593c0,101.1-76.872,183.065-171.7,183.065s-171.7-81.962-171.7-183.065" transform="translate(8760.096 -1820.015)" fill="#1a1311"/>
    <path id="パス_254" data-name="パス 254" d="M1584.791,1099.229l-.506-1.361c-22.382,73.363-87.027,126.394-163.3,126.394-94.827,0-171.7-81.96-171.7-183.065h505.572a339.433,339.433,0,0,0,2.213-38.545c0-185.615-150.471-336.086-336.086-336.086S1084.9,817.038,1084.9,1002.653s150.471,336.086,336.086,336.086c118.319,0,222.345-61.149,282.232-153.562ZM1417.758,796.58c76.56,0,138.624,55.643,138.624,124.282H1279.135c0-68.64,62.064-124.282,138.623-124.282" transform="translate(8691.834 -1975.553)" fill="#fff"/>
  </g>
</svg>
