<svg xmlns="http://www.w3.org/2000/svg" width="666" height="666.193" viewBox="0 0 666 666.193">
  <g id="グループ_135" data-name="グループ 135" transform="translate(-9042 1070.193)">
    <path id="パス_162" data-name="パス 162" d="M734.623,857.024a16.932,16.932,0,0,0-6.047-2.2,11.829,11.829,0,0,0-10.03,3.453c-6.734,6.295-5.98,15.5,1.982,24.022,8.027,8.588,17.231,9.9,24.171,3.41,3.436-3.21,4.9-7.152,4.3-11.232a13.133,13.133,0,0,0-1.835-4.72l10.124-6.244a26.3,26.3,0,0,1,2.574,8.537c.941,7.617-2.1,14.965-8.631,21.065-12.091,11.3-27.566,10.449-39.446-2.262-6.037-6.459-9.178-13.951-9-21.331.156-6.582,3.3-12.864,8.93-18.129,6.733-6.293,14.533-8.691,22.326-6.965a31.336,31.336,0,0,1,7.094,2.769Z" transform="translate(8420.484 -1849.635)" fill="#fff"/>
    <path id="パス_163" data-name="パス 163" d="M764.182,845.775c-6.558-16.221-.64-30.688,15.234-37.107,15.783-6.384,29.974-.149,36.5,15.986s.622,30.9-14.9,37.175c-15.959,6.452-30.237.253-36.831-16.055m11.249-4.549c4.339,10.726,12.6,15.1,21.669,11.431s12.007-12.465,7.7-23.106c-4.551-11.249-12.479-15.55-21.72-11.813-9.159,3.7-12.062,12.587-7.653,23.489" transform="translate(8462.214 -1876.394)" fill="#fff"/>
    <rect id="長方形_249" data-name="長方形 249" width="666" height="666" transform="translate(9042 -1070)" fill="none"/>
  </g>
</svg>
