<svg xmlns="http://www.w3.org/2000/svg" width="858" height="858.43" viewBox="0 0 858 858.43">
  <g id="グループ_136" data-name="グループ 136" transform="translate(-9684 1398)">
    <path id="パス_167" data-name="パス 167" d="M1298.459,1121.1c1.353,5.839,4.475,8.2,11.143,8.318,6.326.111,10.3-2.3,10.372-6.319a5.234,5.234,0,0,0-2.149-4.313c-1.6-1.139-2.116-1.233-8.927-2.892-6.729-1.57-9.365-2.471-12.248-3.889-4.831-2.394-7.41-6.543-7.324-11.5a12.72,12.72,0,0,1,2.789-7.9c3.583-4.385,9.435-6.507,17.212-6.372,7.01.125,12.539,1.929,15.987,5.24,2.184,2.175,3.343,4.333,4.467,8.542l-11.307,1.257c-.86-4.717-3.732-6.82-9.288-6.918-5.3-.091-8.93,2.24-8.994,5.832a4.611,4.611,0,0,0,2.579,4.063c1.866.973,3.651,1.517,8.5,2.712,8.688,2.033,12.171,3.29,14.955,5.478,3.292,2.451,4.857,5.985,4.775,10.687a13.752,13.752,0,0,1-4.357,9.587c-4,3.607-10.013,5.383-17.792,5.247-8.8-.151-15.342-2.918-18.931-7.938-1.5-2.078-2.242-3.8-3.2-7.667Z" transform="translate(8835.156 -1677.537)" fill="#1a1311"/>
    <path id="パス_168" data-name="パス 168" d="M1353.739,1067.72l3.42,10.309-11.93,3.957-3.42-10.305Zm5.9,18.044a77.276,77.276,0,0,0,2.958,10.82l8.4,25.32a86.06,86.06,0,0,0,4.1,10.442l-11.849,3.932a76.773,76.773,0,0,0-2.851-10.765l-8.455-25.481a70.192,70.192,0,0,0-4.15-10.334Z" transform="translate(8874.275 -1690.68)" fill="#1a1311"/>
    <path id="パス_169" data-name="パス 169" d="M1417.638,1111.742c5.46,1.625,9.589.824,14.468-2.931,5.218-4.012,7.808-8.918,7.2-13.631-.412-2.919-1.761-5.659-5.172-10.369-.1,6.876-2.642,11.85-8.539,16.385-10.774,8.291-23.371,6.221-32.285-5.366-9.019-11.726-7.744-24.788,3.234-33.236,6.031-4.638,11.439-5.885,17.532-4a20.38,20.38,0,0,1-1.855-2.131l-2.4-3.118,9.079-6.984a79.915,79.915,0,0,0,6.044,8.834l17.466,22.7c6.257,8.132,8.51,14.707,7.133,21.052-1.25,5.384-5.676,11.271-12.655,16.639-7.93,6.1-13.809,7.711-22.432,6.037Zm-4.978-15.588a13.092,13.092,0,0,0,9.529-2.476,14.308,14.308,0,0,0,5.3-12.6,18.124,18.124,0,0,0-4.046-9.187c-3.338-4.339-7.3-6.683-11.782-6.9a12.935,12.935,0,0,0-8.45,2.622c-6.777,5.213-7.068,13.529-.864,21.592,3.076,4,6.714,6.485,10.312,6.952" transform="translate(8906.605 -1705.845)" fill="#1a1311"/>
    <path id="パス_170" data-name="パス 170" d="M1470.49,1060.462a70.588,70.588,0,0,0-9.132-6.377l-22.917-14a70.262,70.262,0,0,0-9.845-5.211l6.063-9.927,3.868,2.363a33.511,33.511,0,0,1,3.049,2.063c-2.974-7.928-2.656-13.045,1.356-19.614,3.432-5.621,7.8-8.667,12.978-9.11,3.477-.28,6.842.773,11.733,3.759l17.515,10.7a67.534,67.534,0,0,0,9.845,5.211l-6.463,10.584a90.483,90.483,0,0,0-9.177-6.305l-16.2-9.895c-3.066-1.873-5.259-2.71-7.181-2.682-2.611.01-5.043,1.531-6.736,4.3-3.21,5.257-2.189,11.791,3.075,19.415l14.743,9a76.557,76.557,0,0,0,9.845,5.209Z" transform="translate(8935.905 -1738.338)" fill="#1a1311"/>
    <path id="パス_171" data-name="パス 171" d="M1185.12,677.606a2.1,2.1,0,0,0,2.979.308c1.182-.677,1.65-1.561,1.219-2.312a1.125,1.125,0,0,0-.872-.561c-.422-.034-.527.005-1.97.451a11.094,11.094,0,0,1-2.693.631,2.634,2.634,0,0,1-2.624-1.317,2.733,2.733,0,0,1-.356-1.77,4.432,4.432,0,0,1,2.478-3.077,5.028,5.028,0,0,1,3.533-.8,3.593,3.593,0,0,1,1.77,1.088l-1.951,1.479a1.739,1.739,0,0,0-2.481-.253c-.99.568-1.406,1.4-1.019,2.069a.986.986,0,0,0,.925.467,7.727,7.727,0,0,0,1.873-.436,7.9,7.9,0,0,1,3.367-.638,2.619,2.619,0,0,1,2.062,1.448,2.951,2.951,0,0,1,.253,2.254,5.43,5.43,0,0,1-2.711,2.935,4.868,4.868,0,0,1-4.376.621,4.122,4.122,0,0,1-1.437-1.064Z" transform="translate(8759.92 -1973.766)" fill="#1a1311"/>
    <path id="パス_172" data-name="パス 172" d="M1193,661.868l1.048,2.091-2.422,1.213-1.048-2.093Zm1.814,3.663a16.5,16.5,0,0,0,.965,2.215l2.572,5.137a18.666,18.666,0,0,0,1.2,2.1l-2.4,1.2a16.665,16.665,0,0,0-.941-2.206l-2.589-5.17a15.068,15.068,0,0,0-1.2-2.074Z" transform="translate(8766.881 -1978.89)" fill="#1a1311"/>
    <path id="パス_173" data-name="パス 173" d="M1205.718,671.722a3.12,3.12,0,0,0,3.174.156,3.311,3.311,0,0,0,2.228-2.463,5.025,5.025,0,0,0-.528-2.437,4.194,4.194,0,0,1-2.652,2.965c-2.688,1.158-5.207.057-6.452-2.835-1.259-2.924-.3-5.584,2.44-6.762a3.882,3.882,0,0,1,3.87.1,4.487,4.487,0,0,1-.273-.544l-.335-.778,2.268-.975a16.575,16.575,0,0,0,.79,2.163l2.439,5.666c.874,2.028,1,3.52.371,4.771a6.963,6.963,0,0,1-3.525,2.8,5.344,5.344,0,0,1-5,.068Zm-.21-3.518a2.813,2.813,0,0,0,2.119-.01,3.076,3.076,0,0,0,1.775-2.348,3.888,3.888,0,0,0-.355-2.131,3.393,3.393,0,0,0-2.092-2.066,2.77,2.77,0,0,0-1.9.1c-1.691.727-2.192,2.447-1.327,4.46a3.555,3.555,0,0,0,1.784,2" transform="translate(8774.24 -1981.532)" fill="#1a1311"/>
    <path id="パス_174" data-name="パス 174" d="M1216.99,666.225a15.467,15.467,0,0,0-.648-2.307l-1.9-5.457a15.312,15.312,0,0,0-.925-2.211l2.363-.823.32.92a6.333,6.333,0,0,1,.226.759,4.21,4.21,0,0,1,2.9-3.076,3.63,3.63,0,0,1,3.4.256,4.087,4.087,0,0,1,1.44,2.227l1.454,4.171a14.441,14.441,0,0,0,.925,2.211l-2.521.877a19.525,19.525,0,0,0-.664-2.3l-1.346-3.86a3.015,3.015,0,0,0-.828-1.426,1.732,1.732,0,0,0-1.708-.2c-1.25.436-1.973,1.662-2.139,3.65l1.224,3.511a16.289,16.289,0,0,0,.925,2.209Z" transform="translate(8783.17 -1984.665)" fill="#1a1311"/>
    <rect id="長方形_250" data-name="長方形 250" width="858" height="858" transform="translate(9684 -1398)" fill="none"/>
  </g>
</svg>
